<?xml version="1.0" encoding="utf-8"?>
<svg viewBox="0 0 86 16" xmlns="http://www.w3.org/2000/svg" xmlns:bx="https://boxy-svg.com">
  <defs>
    <rect x="6.2448939" y="10.928564" width="771.2444" height="199.83661" id="rect1617"/>
  </defs>
  <g transform="matrix(0.155556, 0, 0, 0.155556, 0.22222, 0.22222)" style="">
    <title>Logo</title>
    <rect style="fill: rgb(255, 87, 34);" y="5" width="90" height="90" rx="22.5" ry="22.5" x="5" bx:origin="-0.055556 -0.055556"/>
    <path d="M 56.862 19.563 C 85.436 38.63 76.17 59.585 76.17 59.585 C 76.17 59.585 84.285 68.568 81.024 76.437 C 81.024 76.437 77.657 70.941 72.066 70.941 C 66.664 70.941 63.467 76.437 52.559 76.437 C 28.297 76.437 16.797 56.554 16.797 56.554 C 38.659 70.692 53.599 60.675 53.599 60.675 C 43.726 55.075 22.789 28.268 22.789 28.268 C 41.042 43.505 48.919 47.508 48.919 47.508 C 44.181 43.706 30.983 25.071 30.983 25.071 C 41.545 35.548 62.539 50.157 62.539 50.157 C 68.562 34.012 56.862 19.563 56.862 19.563 Z" style="fill: rgb(255, 255, 255);">
      <title>Swift Logo</title>
    </path>
  </g>
  <g id="layer1" transform="matrix(1.137045, 0, 0, 1.137045, -48.586613, -25.176727)">
    <title>Swift Solution</title>
    <g>
      <title>Swift</title>
      <path d="M 60.606 33.575 C 60.077 33.575 59.636 33.48 59.283 33.29 C 58.93 33.092 58.662 32.799 58.479 32.411 C 58.302 32.016 58.2 31.515 58.172 30.908 L 59.675 30.654 C 59.689 31.007 59.724 31.304 59.78 31.543 C 59.844 31.776 59.936 31.953 60.056 32.073 C 60.183 32.185 60.338 32.242 60.521 32.242 C 60.747 32.242 60.899 32.171 60.976 32.03 C 61.061 31.889 61.103 31.727 61.103 31.543 C 61.103 31.184 61.015 30.884 60.839 30.644 C 60.669 30.397 60.444 30.15 60.161 29.903 L 59.272 29.13 C 58.955 28.862 58.694 28.559 58.489 28.22 C 58.292 27.882 58.193 27.465 58.193 26.971 C 58.193 26.266 58.398 25.726 58.807 25.352 C 59.223 24.971 59.791 24.781 60.511 24.781 C 60.941 24.781 61.294 24.851 61.569 24.992 C 61.844 25.133 62.056 25.324 62.204 25.564 C 62.359 25.797 62.465 26.054 62.521 26.336 C 62.585 26.612 62.624 26.887 62.638 27.162 L 61.146 27.384 C 61.132 27.123 61.107 26.894 61.072 26.696 C 61.043 26.499 60.98 26.343 60.881 26.231 C 60.789 26.118 60.648 26.061 60.458 26.061 C 60.253 26.061 60.101 26.139 60.003 26.294 C 59.904 26.442 59.854 26.608 59.854 26.791 C 59.854 27.095 59.922 27.345 60.056 27.543 C 60.197 27.733 60.387 27.934 60.627 28.146 L 61.495 28.908 C 61.855 29.219 62.162 29.575 62.416 29.977 C 62.677 30.372 62.807 30.863 62.807 31.448 C 62.807 31.85 62.715 32.214 62.532 32.538 C 62.349 32.863 62.091 33.117 61.759 33.3 C 61.435 33.484 61.05 33.575 60.606 33.575 Z" style="font-weight:600;font-family:Oswald;-inkscape-font-specification:'Oswald Semi-Bold'" id="path53096">
        <title>S</title>
      </path>
      <path d="M 64.245 33.459 L 63.324 27.342 L 64.658 27.342 L 65.145 31.035 L 65.695 27.342 L 66.859 27.342 L 67.357 31.099 L 67.907 27.342 L 69.156 27.342 L 68.214 33.459 L 66.849 33.459 L 66.256 29.829 L 65.61 33.459 Z" style="font-weight:600;font-family:Oswald;-inkscape-font-specification:'Oswald Semi-Bold'" id="path53098">
        <title>w</title>
      </path>
      <path d="M 69.967 33.459 L 69.967 27.342 L 71.566 27.342 L 71.566 33.459 Z M 69.957 26.336 L 69.957 25.14 L 71.566 25.14 L 71.566 26.336 Z" style="font-weight:600;font-family:Oswald;-inkscape-font-specification:'Oswald Semi-Bold'" id="path53100">
        <title>i</title>
      </path>
      <path d="M 72.918 33.459 L 72.918 28.432 L 72.304 28.432 L 72.304 27.342 L 72.918 27.342 L 72.918 26.918 C 72.918 26.552 72.954 26.234 73.024 25.966 C 73.102 25.698 73.253 25.49 73.479 25.342 C 73.705 25.193 74.051 25.119 74.516 25.119 C 74.657 25.119 74.788 25.123 74.908 25.13 C 75.035 25.137 75.176 25.151 75.331 25.172 L 75.331 26.358 C 75.275 26.343 75.211 26.333 75.141 26.326 C 75.077 26.312 75.014 26.305 74.95 26.305 C 74.802 26.305 74.693 26.351 74.622 26.442 C 74.552 26.527 74.516 26.664 74.516 26.855 L 74.516 27.342 L 75.331 27.342 L 75.331 28.432 L 74.516 28.432 L 74.516 33.459 Z" style="font-weight:600;font-family:Oswald;-inkscape-font-specification:'Oswald Semi-Bold'" id="path53102">
        <title>f</title>
      </path>
      <path d="M 77.813 33.522 C 77.39 33.522 77.058 33.459 76.818 33.332 C 76.578 33.198 76.412 33.007 76.321 32.76 C 76.229 32.514 76.183 32.214 76.183 31.861 L 76.183 28.39 L 75.58 28.39 L 75.58 27.342 L 76.183 27.342 L 76.183 25.49 L 77.802 25.49 L 77.802 27.342 L 78.691 27.342 L 78.691 28.39 L 77.802 28.39 L 77.802 31.713 C 77.802 31.903 77.848 32.041 77.94 32.125 C 78.039 32.203 78.173 32.242 78.342 32.242 C 78.427 32.242 78.508 32.238 78.586 32.231 C 78.663 32.217 78.734 32.207 78.797 32.2 L 78.797 33.448 C 78.698 33.463 78.557 33.477 78.374 33.491 C 78.19 33.512 78.004 33.522 77.813 33.522 Z" style="font-weight:600;font-family:Oswald;-inkscape-font-specification:'Oswald Semi-Bold'" id="path53104">
        <title>t</title>
      </path>
    </g>
    <g aria-label="Swift Solution" id="text11409" style="font-size:10.5833px;line-height:1.25;stroke-width:0.264583">
      <title>Solution</title>
      <path d="m 84.583679,33.575385 q -0.793747,0 -1.322912,-0.285749 -0.529165,-0.296332 -0.804331,-0.878414 -0.264583,-0.592664 -0.306916,-1.502828 l 1.502829,-0.253999 q 0.02117,0.529165 0.105833,0.888997 0.09525,0.349249 0.275165,0.529165 0.1905,0.169333 0.465666,0.169333 0.338665,0 0.455081,-0.211666 0.127,-0.211666 0.127,-0.486832 0,-0.539748 -0.264582,-0.899581 -0.254,-0.370415 -0.677332,-0.740831 L 83.250183,29.1304 q -0.476248,-0.402166 -0.783164,-0.910164 -0.296332,-0.507999 -0.296332,-1.24883 0,-1.05833 0.613831,-1.619244 0.624415,-0.571499 1.703911,-0.571499 0.645582,0 1.05833,0.211666 0.412749,0.211666 0.634998,0.571499 0.232833,0.349248 0.317499,0.77258 0.09525,0.412749 0.116417,0.825498 l -1.492246,0.222249 q -0.02117,-0.391582 -0.07408,-0.687914 -0.04233,-0.296333 -0.190499,-0.465666 -0.137583,-0.169332 -0.423332,-0.169332 -0.306916,0 -0.455082,0.232832 -0.148166,0.22225 -0.148166,0.497415 0,0.455082 0.201082,0.751415 0.211666,0.285749 0.571499,0.603248 l 0.86783,0.761997 q 0.539748,0.465665 0.920747,1.068914 0.391582,0.592664 0.391582,1.471078 0,0.603248 -0.275165,1.09008 -0.275166,0.486832 -0.772581,0.761998 -0.486832,0.275165 -1.15358,0.275165 z" style="font-weight:600;font-family:Oswald;-inkscape-font-specification:'Oswald Semi-Bold'" id="path53106">
        <title>S</title>
      </path>
      <path d="m 89.556341,33.564802 q -0.656165,0 -1.12183,-0.232832 -0.465665,-0.243416 -0.709081,-0.698498 -0.232833,-0.455082 -0.232833,-1.132413 v -2.201327 q 0,-0.677331 0.232833,-1.132413 0.243416,-0.455082 0.709081,-0.687914 0.465665,-0.243416 1.12183,-0.243416 0.656164,0 1.12183,0.243416 0.465665,0.232832 0.709081,0.687914 0.243416,0.455082 0.243416,1.132413 v 2.201327 q 0,0.677331 -0.243416,1.132413 -0.243416,0.455082 -0.709081,0.698498 -0.465666,0.232832 -1.12183,0.232832 z m 0.01058,-1.079496 q 0.201083,0 0.306916,-0.105833 0.105833,-0.116417 0.137583,-0.306916 0.03175,-0.201083 0.03175,-0.455082 v -2.423576 q 0,-0.264582 -0.03175,-0.455082 -0.03175,-0.190499 -0.137583,-0.306915 -0.105833,-0.116417 -0.306916,-0.116417 -0.201083,0 -0.306916,0.116417 -0.105833,0.116416 -0.148166,0.306915 -0.03175,0.1905 -0.03175,0.455082 v 2.423576 q 0,0.253999 0.03175,0.455082 0.04233,0.190499 0.148166,0.306916 0.105833,0.105833 0.306916,0.105833 z" style="font-weight:600;font-family:Oswald;-inkscape-font-specification:'Oswald Semi-Bold'" id="path53108">
        <title>o</title>
      </path>
      <path d="m 92.675272,33.458969 v -8.572473 h 1.598078 v 8.572473 z" style="font-weight:600;font-family:Oswald;-inkscape-font-specification:'Oswald Semi-Bold'" id="path53110">
        <title>l</title>
      </path>
      <path d="m 96.428872,33.564802 q -0.370415,0 -0.624414,-0.190499 -0.243416,-0.1905 -0.359833,-0.507999 -0.116416,-0.317499 -0.116416,-0.698497 v -4.825985 h 1.598078 v 4.593152 q 0,0.253999 0.08467,0.391582 0.08467,0.127 0.306915,0.127 0.127,0 0.264583,-0.0635 0.148166,-0.07408 0.296332,-0.169333 v -4.878901 h 1.598078 v 6.117147 h -1.598078 v -0.571498 q -0.317499,0.306916 -0.687914,0.497415 -0.359832,0.179916 -0.761998,0.179916 z" style="font-weight:600;font-family:Oswald;-inkscape-font-specification:'Oswald Semi-Bold'" id="path53112">
        <title>u</title>
      </path>
      <path d="m 102.41092,33.522469 q -0.635,0 -0.99483,-0.190499 -0.35984,-0.201083 -0.49742,-0.571499 -0.13758,-0.370415 -0.13758,-0.89958 v -3.471322 h -0.60325 v -1.047747 h 0.60325 v -1.852078 h 1.61924 v 1.852078 h 0.889 v 1.047747 h -0.889 v 3.323156 q 0,0.285749 0.13759,0.412748 0.14816,0.116417 0.40216,0.116417 0.127,0 0.24342,-0.01058 0.11641,-0.02117 0.21166,-0.03175 v 1.24883 q -0.14816,0.02117 -0.42333,0.04233 -0.27516,0.03175 -0.56091,0.03175 z" style="font-weight:600;font-family:Oswald;-inkscape-font-specification:'Oswald Semi-Bold'" id="path53114">
        <title>t</title>
      </path>
      <path d="m 104.23918,33.458969 v -6.117147 h 1.59808 v 6.117147 z m -0.0106,-7.122561 v -1.195912 h 1.60866 v 1.195912 z" style="font-weight:600;font-family:Oswald;-inkscape-font-specification:'Oswald Semi-Bold'" id="path53116">
        <title>i</title>
      </path>
      <path d="m 108.88327,33.564802 q -0.65617,0 -1.12183,-0.232832 -0.46567,-0.243416 -0.70908,-0.698498 -0.23284,-0.455082 -0.23284,-1.132413 v -2.201327 q 0,-0.677331 0.23284,-1.132413 0.24341,-0.455082 0.70908,-0.687914 0.46566,-0.243416 1.12183,-0.243416 0.65616,0 1.12183,0.243416 0.46566,0.232832 0.70908,0.687914 0.24341,0.455082 0.24341,1.132413 v 2.201327 q 0,0.677331 -0.24341,1.132413 -0.24342,0.455082 -0.70908,0.698498 -0.46567,0.232832 -1.12183,0.232832 z m 0.0106,-1.079496 q 0.20108,0 0.30692,-0.105833 0.10583,-0.116417 0.13758,-0.306916 0.0317,-0.201083 0.0317,-0.455082 v -2.423576 q 0,-0.264582 -0.0317,-0.455082 -0.0318,-0.190499 -0.13758,-0.306915 -0.10584,-0.116417 -0.30692,-0.116417 -0.20108,0 -0.30692,0.116417 -0.10583,0.116416 -0.14816,0.306915 -0.0318,0.1905 -0.0318,0.455082 v 2.423576 q 0,0.253999 0.0318,0.455082 0.0423,0.190499 0.14816,0.306916 0.10584,0.105833 0.30692,0.105833 z" style="font-weight:600;font-family:Oswald;-inkscape-font-specification:'Oswald Semi-Bold'" id="path53118">
        <title>o</title>
      </path>
      <path d="m 111.92811,33.458969 v -6.117147 h 1.59808 v 0.613831 q 0.32808,-0.328082 0.68792,-0.518581 0.37041,-0.201083 0.78316,-0.201083 0.381,0 0.61383,0.190499 0.24342,0.1905 0.35983,0.507999 0.11642,0.306915 0.11642,0.698497 v 4.825985 h -1.5875 v -4.561402 q 0,-0.253999 -0.0847,-0.380999 -0.0741,-0.126999 -0.29633,-0.126999 -0.127,0 -0.28575,0.07408 -0.14817,0.0635 -0.30692,0.179916 v 4.815401 z" style="font-weight:600;font-family:Oswald;-inkscape-font-specification:'Oswald Semi-Bold'" id="path53120">
        <title>n</title>
      </path>
    </g>
  </g>
</svg>