<?xml version="1.0" encoding="utf-8"?>
<svg viewBox="0 0 200 40" xmlns="http://www.w3.org/2000/svg" xmlns:bx="https://boxy-svg.com">
  <defs>
    <rect x="6.2448939" y="10.928564" width="771.2444" height="199.83661" id="rect1617"/>
  </defs>
  <g transform="matrix(0.4, 0, 0, 0.4, 0, 0)">
    <title>Logo</title>
    <rect style="fill: rgb(255, 87, 34);" y="5" width="90" height="90" rx="22.5" ry="22.5" x="5" bx:origin="-0.055556 -0.055556"/>
    <path d="M 56.862 19.563 C 85.436 38.63 76.17 59.585 76.17 59.585 C 76.17 59.585 84.285 68.568 81.024 76.437 C 81.024 76.437 77.657 70.941 72.066 70.941 C 66.664 70.941 63.467 76.437 52.559 76.437 C 28.297 76.437 16.797 56.554 16.797 56.554 C 38.659 70.692 53.599 60.675 53.599 60.675 C 43.726 55.075 22.789 28.268 22.789 28.268 C 41.042 43.505 48.919 47.508 48.919 47.508 C 44.181 43.706 30.983 25.071 30.983 25.071 C 41.545 35.548 62.539 50.157 62.539 50.157 C 68.562 34.012 56.862 19.563 56.862 19.563 Z" style="fill: rgb(255, 255, 255);">
      <title>Swift Logo</title>
    </path>
  </g>
  <g id="layer1" transform="matrix(0.740006, 0, 0, 0.740006, 67.782021, 17.535324)" style="">
    <title>Swift Solution</title>
    <g>
      <title>Swift</title>
      <path d="M -27.156 8.336 L -32.476 8.336 L -32.476 9.407 C -32.476 11.845 -31.835 13.717 -30.555 15.022 C -29.249 16.328 -27.094 16.98 -24.09 16.98 C -21.208 16.98 -18.967 16.353 -17.366 15.097 C -15.74 13.816 -14.928 11.784 -14.928 9.001 C -14.928 8.188 -15.001 7.449 -15.149 6.784 C -15.297 6.119 -15.568 5.515 -15.962 4.974 C -16.331 4.407 -16.836 3.89 -17.477 3.422 C -18.117 2.93 -18.942 2.462 -19.952 2.018 L -24.053 0.245 C -25.186 -0.223 -25.924 -0.728 -26.269 -1.27 C -26.614 -1.836 -26.786 -2.526 -26.786 -3.339 C -26.786 -3.733 -26.75 -4.114 -26.676 -4.484 C -26.577 -4.853 -26.417 -5.174 -26.196 -5.444 C -25.949 -5.74 -25.629 -5.974 -25.235 -6.147 C -24.841 -6.319 -24.348 -6.405 -23.757 -6.405 C -22.723 -6.405 -21.984 -6.06 -21.54 -5.37 C -21.097 -4.706 -20.875 -3.745 -20.875 -2.489 L -15.777 -2.489 L -15.777 -3.228 C -15.777 -4.484 -15.986 -5.555 -16.405 -6.442 C -16.799 -7.353 -17.366 -8.092 -18.104 -8.658 C -18.819 -9.25 -19.681 -9.668 -20.691 -9.915 C -21.676 -10.186 -22.76 -10.321 -23.942 -10.321 C -26.479 -10.321 -28.474 -9.681 -29.927 -8.4 C -31.38 -7.119 -32.107 -5.174 -32.107 -2.563 C -32.107 -1.479 -31.971 -0.519 -31.7 0.319 C -31.429 1.132 -31.01 1.858 -30.444 2.499 C -29.853 3.115 -29.127 3.656 -28.264 4.124 C -27.402 4.592 -26.38 5.023 -25.198 5.417 C -24.311 5.713 -23.573 6.008 -22.981 6.304 C -22.365 6.575 -21.873 6.883 -21.504 7.228 C -21.134 7.572 -20.875 7.966 -20.727 8.41 C -20.555 8.828 -20.469 9.333 -20.469 9.924 C -20.469 11.033 -20.802 11.858 -21.467 12.399 C -22.107 12.917 -22.833 13.175 -23.646 13.175 C -24.336 13.175 -24.915 13.077 -25.383 12.88 C -25.826 12.683 -26.183 12.412 -26.454 12.067 C -26.725 11.722 -26.91 11.304 -27.008 10.811 C -27.106 10.294 -27.156 9.727 -27.156 9.111 Z" style="font-weight: bold; font-stretch: condensed; font-family: &quot;Helvetica Neue&quot;;" id="path9267"/>
      <path d="M -13.837 -3.302 L -9.514 16.574 L -3.603 16.574 L -1.128 2.462 L -1.054 2.462 L 1.569 16.574 L 7.369 16.574 L 11.655 -3.302 L 6.778 -3.302 L 4.377 10.811 L 4.303 10.811 L 1.68 -3.302 L -3.861 -3.302 L -6.337 10.811 L -6.411 10.811 L -8.738 -3.302 Z" style="font-weight: bold; font-stretch: condensed; font-family: &quot;Helvetica Neue&quot;;" id="path9269"/>
      <path d="M 13.765 -10.099 L 13.765 -5.74 L 18.864 -5.74 L 18.864 -10.099 Z M 13.765 -3.302 L 13.765 16.574 L 18.864 16.574 L 18.864 -3.302 Z" style="font-weight: bold; font-stretch: condensed; font-family: &quot;Helvetica Neue&quot;;" id="path9271"/>
      <path d="M 23.564 0.171 L 23.564 16.574 L 28.663 16.574 L 28.663 0.171 L 31.618 0.171 L 31.618 -3.302 L 28.663 -3.302 L 28.663 -5.038 C 28.663 -5.605 28.81 -6.011 29.106 -6.257 C 29.401 -6.504 29.906 -6.627 30.621 -6.627 L 31.101 -6.627 C 31.322 -6.627 31.495 -6.615 31.618 -6.59 L 31.618 -10.21 C 30.706 -10.284 29.796 -10.321 28.884 -10.321 C 28.071 -10.321 27.333 -10.235 26.668 -10.063 C 26.002 -9.915 25.436 -9.656 24.968 -9.287 C 24.525 -8.917 24.18 -8.425 23.934 -7.809 C 23.687 -7.193 23.564 -6.442 23.564 -5.555 L 23.564 -3.302 L 20.978 -3.302 L 20.978 0.171 Z" style="font-weight: bold; font-stretch: condensed; font-family: &quot;Helvetica Neue&quot;;" id="path9273"/>
      <path d="M 34.532 -8.991 L 34.532 -3.302 L 31.946 -3.302 L 31.946 0.171 L 34.532 0.171 L 34.532 11.55 C 34.532 12.559 34.593 13.397 34.717 14.062 C 34.84 14.727 35.062 15.269 35.382 15.687 C 35.727 16.082 36.207 16.353 36.822 16.5 C 37.463 16.623 38.275 16.685 39.261 16.685 C 39.852 16.685 40.406 16.66 40.923 16.611 C 41.465 16.587 42.019 16.574 42.586 16.574 L 42.586 13.027 C 42.414 13.052 42.229 13.077 42.031 13.102 C 41.834 13.102 41.637 13.102 41.441 13.102 C 40.701 13.102 40.209 12.942 39.963 12.621 C 39.741 12.277 39.63 11.71 39.63 10.922 L 39.63 0.171 L 42.586 0.171 L 42.586 -3.302 L 39.63 -3.302 L 39.63 -8.991 Z" style="font-weight: bold; font-stretch: condensed; font-family: &quot;Helvetica Neue&quot;;" id="path9275"/>
    </g>
    <g aria-label="Swift Solution" id="text1755" style="font-size:22.5778px;line-height:1.25;stroke-width:0.264583">
      <title>Solution</title>
      <path d="M 57.7 8.336 L 52.38 8.336 L 52.38 9.407 C 52.38 11.845 53.02 13.717 54.301 15.022 C 55.606 16.328 57.762 16.98 60.766 16.98 C 63.648 16.98 65.889 16.353 67.49 15.097 C 69.115 13.816 69.928 11.784 69.928 9.001 C 69.928 8.188 69.854 7.449 69.707 6.784 C 69.559 6.119 69.288 5.515 68.894 4.974 C 68.524 4.407 68.019 3.89 67.379 3.422 C 66.739 2.93 65.914 2.462 64.904 2.018 L 60.803 0.245 C 59.67 -0.223 58.931 -0.728 58.587 -1.27 C 58.242 -1.836 58.069 -2.526 58.069 -3.339 C 58.069 -3.733 58.106 -4.114 58.18 -4.484 C 58.279 -4.853 58.439 -5.174 58.66 -5.444 C 58.907 -5.74 59.227 -5.974 59.621 -6.147 C 60.015 -6.319 60.508 -6.405 61.099 -6.405 C 62.133 -6.405 62.872 -6.06 63.315 -5.37 C 63.758 -4.706 63.981 -3.745 63.981 -2.489 L 69.079 -2.489 L 69.079 -3.228 C 69.079 -4.484 68.869 -5.555 68.451 -6.442 C 68.057 -7.353 67.49 -8.092 66.751 -8.658 C 66.037 -9.25 65.175 -9.668 64.165 -9.915 C 63.18 -10.186 62.096 -10.321 60.914 -10.321 C 58.377 -10.321 56.382 -9.681 54.929 -8.4 C 53.476 -7.119 52.749 -5.174 52.749 -2.563 C 52.749 -1.479 52.885 -0.519 53.156 0.319 C 53.426 1.132 53.845 1.858 54.411 2.499 C 55.003 3.115 55.729 3.656 56.592 4.124 C 57.454 4.592 58.476 5.023 59.658 5.417 C 60.545 5.713 61.283 6.008 61.875 6.304 C 62.49 6.575 62.983 6.883 63.352 7.228 C 63.722 7.572 63.981 7.966 64.128 8.41 C 64.301 8.828 64.387 9.333 64.387 9.924 C 64.387 11.033 64.054 11.858 63.389 12.399 C 62.749 12.917 62.022 13.175 61.21 13.175 C 60.52 13.175 59.941 13.077 59.473 12.88 C 59.03 12.683 58.672 12.412 58.402 12.067 C 58.131 11.722 57.946 11.304 57.847 10.811 C 57.749 10.294 57.7 9.727 57.7 9.111 Z" style="font-weight: bold; font-stretch: condensed; font-family: &quot;Helvetica Neue&quot;;" id="path9277"/>
      <path d="M 76.894 6.636 C 76.894 5.626 76.918 4.69 76.967 3.828 C 77.017 2.967 77.127 2.227 77.3 1.612 C 77.497 0.996 77.78 0.516 78.149 0.171 C 78.519 -0.174 79.012 -0.346 79.627 -0.346 C 80.662 -0.346 81.376 0.196 81.77 1.279 C 82.164 2.363 82.361 4.149 82.361 6.636 C 82.361 9.124 82.164 10.909 81.77 11.993 C 81.376 13.077 80.662 13.619 79.627 13.619 C 79.012 13.619 78.519 13.446 78.149 13.102 C 77.78 12.757 77.497 12.277 77.3 11.661 C 77.127 11.045 77.017 10.306 76.967 9.444 C 76.918 8.582 76.894 7.646 76.894 6.636 Z M 71.795 6.636 C 71.795 8.361 71.918 9.887 72.165 11.217 C 72.411 12.523 72.83 13.619 73.421 14.505 C 74.012 15.367 74.812 16.008 75.822 16.426 C 76.832 16.82 78.1 17.005 79.627 16.98 C 81.08 16.98 82.3 16.771 83.285 16.353 C 84.295 15.934 85.107 15.293 85.723 14.432 C 86.339 13.545 86.782 12.449 87.053 11.144 C 87.324 9.838 87.459 8.336 87.459 6.636 C 87.459 4.888 87.336 3.36 87.09 2.055 C 86.844 0.75 86.425 -0.346 85.834 -1.233 C 85.243 -2.119 84.442 -2.772 83.433 -3.191 C 82.423 -3.634 81.154 -3.844 79.627 -3.819 C 78.174 -3.819 76.943 -3.585 75.933 -3.117 C 74.948 -2.674 74.147 -2.009 73.531 -1.122 C 72.916 -0.26 72.473 0.824 72.201 2.129 C 71.931 3.435 71.795 4.937 71.795 6.636 Z" style="font-weight: bold; font-stretch: condensed; font-family: &quot;Helvetica Neue&quot;;" id="path9279"/>
      <path d="M 90.395 -9.804 L 90.395 16.574 L 95.494 16.574 L 95.494 -9.804 Z" style="font-weight: bold; font-stretch: condensed; font-family: &quot;Helvetica Neue&quot;;" id="path9281"/>
      <path d="M 109.282 14.247 L 109.282 16.574 L 114.159 16.574 L 114.159 -3.302 L 109.06 -3.302 L 109.06 9.887 C 109.06 12.079 108.162 13.175 106.364 13.175 C 105.6 13.175 105.046 12.978 104.701 12.584 C 104.356 12.166 104.184 11.439 104.184 10.404 L 104.184 -3.302 L 99.086 -3.302 L 99.086 11.439 C 99.086 13.434 99.517 14.862 100.379 15.725 C 101.266 16.562 102.521 16.98 104.147 16.98 C 105.255 16.98 106.241 16.771 107.102 16.353 C 107.965 15.934 108.667 15.232 109.208 14.247 Z" style="font-weight: bold; font-stretch: condensed; font-family: &quot;Helvetica Neue&quot;;" id="path9283"/>
      <path d="M 118.666 -8.991 L 118.666 -3.302 L 116.08 -3.302 L 116.08 0.171 L 118.666 0.171 L 118.666 11.55 C 118.666 12.559 118.727 13.397 118.851 14.062 C 118.974 14.727 119.196 15.269 119.516 15.687 C 119.86 16.082 120.341 16.353 120.957 16.5 C 121.597 16.623 122.41 16.685 123.395 16.685 C 123.986 16.685 124.54 16.66 125.058 16.611 C 125.599 16.587 126.153 16.574 126.72 16.574 L 126.72 13.027 C 126.548 13.052 126.363 13.077 126.166 13.102 C 125.969 13.102 125.771 13.102 125.575 13.102 C 124.836 13.102 124.343 12.942 124.097 12.621 C 123.875 12.277 123.764 11.71 123.764 10.922 L 123.764 0.171 L 126.72 0.171 L 126.72 -3.302 L 123.764 -3.302 L 123.764 -8.991 Z" style="font-weight: bold; font-stretch: condensed; font-family: &quot;Helvetica Neue&quot;;" id="path9285"/>
      <path d="M 128.71 -10.099 L 128.71 -5.74 L 133.808 -5.74 L 133.808 -10.099 Z M 128.71 -3.302 L 128.71 16.574 L 133.808 16.574 L 133.808 -3.302 Z" style="font-weight: bold; font-stretch: condensed; font-family: &quot;Helvetica Neue&quot;;" id="path9287"/>
      <path d="M 141.834 6.636 C 141.834 5.626 141.859 4.69 141.908 3.828 C 141.957 2.967 142.068 2.227 142.24 1.612 C 142.437 0.996 142.721 0.516 143.09 0.171 C 143.46 -0.174 143.952 -0.346 144.568 -0.346 C 145.603 -0.346 146.317 0.196 146.71 1.279 C 147.105 2.363 147.302 4.149 147.302 6.636 C 147.302 9.124 147.105 10.909 146.71 11.993 C 146.317 13.077 145.603 13.619 144.568 13.619 C 143.952 13.619 143.46 13.446 143.09 13.102 C 142.721 12.757 142.437 12.277 142.24 11.661 C 142.068 11.045 141.957 10.306 141.908 9.444 C 141.859 8.582 141.834 7.646 141.834 6.636 Z M 136.736 6.636 C 136.736 8.361 136.859 9.887 137.105 11.217 C 137.351 12.523 137.77 13.619 138.361 14.505 C 138.952 15.367 139.753 16.008 140.763 16.426 C 141.772 16.82 143.041 17.005 144.568 16.98 C 146.021 16.98 147.24 16.771 148.226 16.353 C 149.235 15.934 150.048 15.293 150.664 14.432 C 151.279 13.545 151.723 12.449 151.994 11.144 C 152.264 9.838 152.4 8.336 152.4 6.636 C 152.4 4.888 152.277 3.36 152.031 2.055 C 151.784 0.75 151.366 -0.346 150.774 -1.233 C 150.184 -2.119 149.383 -2.772 148.373 -3.191 C 147.363 -3.634 146.095 -3.844 144.568 -3.819 C 143.115 -3.819 141.883 -3.585 140.874 -3.117 C 139.889 -2.674 139.088 -2.009 138.472 -1.122 C 137.856 -0.26 137.413 0.824 137.142 2.129 C 136.871 3.435 136.736 4.937 136.736 6.636 Z" style="font-weight: bold; font-stretch: condensed; font-family: &quot;Helvetica Neue&quot;;" id="path9289"/>
      <path d="M 155.151 -3.302 L 155.151 16.574 L 160.25 16.574 L 160.25 3.385 C 160.25 1.193 161.148 0.097 162.946 0.097 C 163.71 0.097 164.264 0.307 164.609 0.725 C 164.954 1.119 165.126 1.834 165.126 2.868 L 165.126 16.574 L 170.225 16.574 L 170.225 1.834 C 170.225 -0.161 169.781 -1.602 168.894 -2.489 C 168.032 -3.376 166.789 -3.819 165.163 -3.819 C 164.055 -3.819 163.07 -3.585 162.208 -3.117 C 161.345 -2.674 160.643 -1.959 160.102 -0.974 L 160.028 -0.974 L 160.028 -3.302 Z" style="font-weight: bold; font-stretch: condensed; font-family: &quot;Helvetica Neue&quot;;" id="path9291"/>
    </g>
  </g>
</svg>